<?xml version="1.0" encoding="UTF-8" standalone="no"?>
<!DOCTYPE svg PUBLIC "-//W3C//DTD SVG 1.1//EN"
 "http://www.w3.org/Graphics/SVG/1.1/DTD/svg11.dtd">
<!-- Generated by graphviz version 2.44.1 (20200629.0846)
 -->
<!-- Title: dependency&#45;cruiser output Pages: 1 -->
<svg width="566pt" height="324pt"
 viewBox="0.00 0.00 566.00 323.62" xmlns="http://www.w3.org/2000/svg" xmlns:xlink="http://www.w3.org/1999/xlink">
<g id="graph0" class="graph" transform="scale(1 1) rotate(0) translate(4 319.62)">
<title>dependency&#45;cruiser output</title>
<polygon fill="white" stroke="transparent" points="-4,4 -4,-319.62 562,-319.62 562,4 -4,4"/>
<g id="clust1" class="cluster">
<title>cluster_node_modules</title>
<path fill="#ffffff" stroke="black" stroke-width="2" d="M349,-22.62C349,-22.62 538,-22.62 538,-22.62 544,-22.62 550,-28.62 550,-34.62 550,-34.62 550,-254.62 550,-254.62 550,-260.62 544,-266.62 538,-266.62 538,-266.62 349,-266.62 349,-266.62 343,-266.62 337,-260.62 337,-254.62 337,-254.62 337,-34.62 337,-34.62 337,-28.62 343,-22.62 349,-22.62"/>
<text text-anchor="middle" x="443.5" y="-255.42" font-family="Helvetica,sans-Serif" font-weight="bold" font-size="9.00">node_modules</text>
</g>
<g id="clust2" class="cluster">
<title>cluster_node_modules/hogan.js</title>
<path fill="#ffffff" stroke="black" stroke-width="2" d="M370,-124.62C370,-124.62 530,-124.62 530,-124.62 536,-124.62 542,-130.62 542,-136.62 542,-136.62 542,-228.62 542,-228.62 542,-234.62 536,-240.62 530,-240.62 530,-240.62 370,-240.62 370,-240.62 364,-240.62 358,-234.62 358,-228.62 358,-228.62 358,-136.62 358,-136.62 358,-130.62 364,-124.62 370,-124.62"/>
<text text-anchor="middle" x="450" y="-229.42" font-family="Helvetica,sans-Serif" font-weight="bold" font-size="9.00">hogan.js</text>
</g>
<g id="clust3" class="cluster">
<title>cluster_node_modules/hogan.js/lib</title>
<path fill="#ffffff" stroke="black" stroke-width="2" d="M378,-132.62C378,-132.62 522,-132.62 522,-132.62 528,-132.62 534,-138.62 534,-144.62 534,-144.62 534,-202.62 534,-202.62 534,-208.62 528,-214.62 522,-214.62 522,-214.62 378,-214.62 378,-214.62 372,-214.62 366,-208.62 366,-202.62 366,-202.62 366,-144.62 366,-144.62 366,-138.62 372,-132.62 378,-132.62"/>
<text text-anchor="middle" x="450" y="-203.42" font-family="Helvetica,sans-Serif" font-weight="bold" font-size="9.00">lib</text>
</g>
<g id="clust4" class="cluster">
<title>cluster_node_modules/stimulus</title>
<path fill="#ffffff" stroke="black" stroke-width="2" d="M357,-30.62C357,-30.62 445,-30.62 445,-30.62 451,-30.62 457,-36.62 457,-42.62 457,-42.62 457,-104.62 457,-104.62 457,-110.62 451,-116.62 445,-116.62 445,-116.62 357,-116.62 357,-116.62 351,-116.62 345,-110.62 345,-104.62 345,-104.62 345,-42.62 345,-42.62 345,-36.62 351,-30.62 357,-30.62"/>
<text text-anchor="middle" x="401" y="-105.42" font-family="Helvetica,sans-Serif" font-weight="bold" font-size="9.00">stimulus</text>
</g>
<g id="clust5" class="cluster">
<title>cluster_node_modules/stimulus/dist</title>
<path fill="#ffffff" stroke="black" stroke-width="2" d="M365,-38.62C365,-38.62 437,-38.62 437,-38.62 443,-38.62 449,-44.62 449,-50.62 449,-50.62 449,-78.62 449,-78.62 449,-84.62 443,-90.62 437,-90.62 437,-90.62 365,-90.62 365,-90.62 359,-90.62 353,-84.62 353,-78.62 353,-78.62 353,-50.62 353,-50.62 353,-44.62 359,-38.62 365,-38.62"/>
<text text-anchor="middle" x="401" y="-79.42" font-family="Helvetica,sans-Serif" font-weight="bold" font-size="9.00">dist</text>
</g>
<g id="clust6" class="cluster">
<title>cluster_src</title>
<path fill="#ffffff" stroke="black" stroke-width="2" d="M20,-75.62C20,-75.62 317,-75.62 317,-75.62 323,-75.62 329,-81.62 329,-87.62 329,-87.62 329,-295.62 329,-295.62 329,-301.62 323,-307.62 317,-307.62 317,-307.62 20,-307.62 20,-307.62 14,-307.62 8,-301.62 8,-295.62 8,-295.62 8,-87.62 8,-87.62 8,-81.62 14,-75.62 20,-75.62"/>
<text text-anchor="middle" x="168.5" y="-296.42" font-family="Helvetica,sans-Serif" font-weight="bold" font-size="9.00">src</text>
</g>
<g id="clust7" class="cluster">
<title>cluster_src/controllers</title>
<path fill="#ffffff" stroke="black" stroke-width="2" d="M90,-143.62C90,-143.62 307,-143.62 307,-143.62 313,-143.62 319,-149.62 319,-155.62 319,-155.62 319,-243.62 319,-243.62 319,-249.62 313,-255.62 307,-255.62 307,-255.62 90,-255.62 90,-255.62 84,-255.62 78,-249.62 78,-243.62 78,-243.62 78,-155.62 78,-155.62 78,-149.62 84,-143.62 90,-143.62"/>
<text text-anchor="middle" x="198.5" y="-244.42" font-family="Helvetica,sans-Serif" font-weight="bold" font-size="9.00">controllers</text>
</g>
<g id="clust8" class="cluster">
<title>cluster_src/lib</title>
<path fill="#ffffff" stroke="black" stroke-width="2" d="M218,-83.62C218,-83.62 309,-83.62 309,-83.62 315,-83.62 321,-89.62 321,-95.62 321,-95.62 321,-123.62 321,-123.62 321,-129.62 315,-135.62 309,-135.62 309,-135.62 218,-135.62 218,-135.62 212,-135.62 206,-129.62 206,-123.62 206,-123.62 206,-95.62 206,-95.62 206,-89.62 212,-83.62 218,-83.62"/>
<text text-anchor="middle" x="263.5" y="-124.42" font-family="Helvetica,sans-Serif" font-weight="bold" font-size="9.00">lib</text>
</g>
<!-- node_modules/hogan.js/lib/compiler.js -->
<g id="node1" class="node">
<title>node_modules/hogan.js/lib/compiler.js</title>
<g id="a_node1"><a xlink:href="node_modules/hogan.js/lib/compiler.js" xlink:title="compiler.js">
<path fill="#c40b0a" fill-opacity="0.101961" stroke="black" d="M520,-158.62C520,-158.62 471,-158.62 471,-158.62 468,-158.62 465,-155.62 465,-152.62 465,-152.62 465,-146.62 465,-146.62 465,-143.62 468,-140.62 471,-140.62 471,-140.62 520,-140.62 520,-140.62 523,-140.62 526,-143.62 526,-146.62 526,-146.62 526,-152.62 526,-152.62 526,-155.62 523,-158.62 520,-158.62"/>
<text text-anchor="middle" x="495.5" y="-147.42" font-family="Helvetica,sans-Serif" font-size="9.00" fill="#c40b0a">compiler.js</text>
</a>
</g>
</g>
<!-- node_modules/hogan.js/lib/hogan.js -->
<g id="node2" class="node">
<title>node_modules/hogan.js/lib/hogan.js</title>
<g id="a_node2"><a xlink:href="node_modules/hogan.js/lib/hogan.js" xlink:title="hogan.js">
<path fill="#c40b0a" fill-opacity="0.101961" stroke="black" d="M422,-188.62C422,-188.62 380,-188.62 380,-188.62 377,-188.62 374,-185.62 374,-182.62 374,-182.62 374,-176.62 374,-176.62 374,-173.62 377,-170.62 380,-170.62 380,-170.62 422,-170.62 422,-170.62 425,-170.62 428,-173.62 428,-176.62 428,-176.62 428,-182.62 428,-182.62 428,-185.62 425,-188.62 422,-188.62"/>
<text text-anchor="middle" x="401" y="-177.42" font-family="Helvetica,sans-Serif" font-size="9.00" fill="#c40b0a">hogan.js</text>
</a>
</g>
</g>
<!-- node_modules/hogan.js/lib/hogan.js&#45;&gt;node_modules/hogan.js/lib/compiler.js -->
<g id="edge1" class="edge">
<title>node_modules/hogan.js/lib/hogan.js&#45;&gt;node_modules/hogan.js/lib/compiler.js</title>
<path fill="none" stroke="#000000" stroke-width="2" stroke-opacity="0.200000" d="M428.26,-171.1C438.35,-167.83 450.02,-164.04 460.73,-160.57"/>
<polygon fill="#000000" fill-opacity="0.200000" stroke="#000000" stroke-width="2" stroke-opacity="0.200000" points="461.5,-162.53 466.56,-158.68 460.2,-158.53 461.5,-162.53"/>
</g>
<!-- node_modules/hogan.js/lib/template.js -->
<g id="node3" class="node">
<title>node_modules/hogan.js/lib/template.js</title>
<g id="a_node3"><a xlink:href="node_modules/hogan.js/lib/template.js" xlink:title="template.js">
<path fill="#c40b0a" fill-opacity="0.101961" stroke="black" d="M520,-188.62C520,-188.62 471,-188.62 471,-188.62 468,-188.62 465,-185.62 465,-182.62 465,-182.62 465,-176.62 465,-176.62 465,-173.62 468,-170.62 471,-170.62 471,-170.62 520,-170.62 520,-170.62 523,-170.62 526,-173.62 526,-176.62 526,-176.62 526,-182.62 526,-182.62 526,-185.62 523,-188.62 520,-188.62"/>
<text text-anchor="middle" x="495.5" y="-177.42" font-family="Helvetica,sans-Serif" font-size="9.00" fill="#c40b0a">template.js</text>
</a>
</g>
</g>
<!-- node_modules/hogan.js/lib/hogan.js&#45;&gt;node_modules/hogan.js/lib/template.js -->
<g id="edge2" class="edge">
<title>node_modules/hogan.js/lib/hogan.js&#45;&gt;node_modules/hogan.js/lib/template.js</title>
<path fill="none" stroke="#000000" stroke-width="2" stroke-opacity="0.200000" d="M428.26,-179.62C437.73,-179.62 448.57,-179.62 458.71,-179.62"/>
<polygon fill="#000000" fill-opacity="0.200000" stroke="#000000" stroke-width="2" stroke-opacity="0.200000" points="458.92,-181.72 464.92,-179.62 458.92,-177.52 458.92,-181.72"/>
</g>
<!-- node_modules/stimulus/dist/stimulus.umd.js -->
<g id="node4" class="node">
<title>node_modules/stimulus/dist/stimulus.umd.js</title>
<g id="a_node4"><a xlink:href="node_modules/stimulus/dist/stimulus.umd.js" xlink:title="stimulus.umd.js">
<path fill="#c40b0a" fill-opacity="0.101961" stroke="black" d="M435,-64.62C435,-64.62 367,-64.62 367,-64.62 364,-64.62 361,-61.62 361,-58.62 361,-58.62 361,-52.62 361,-52.62 361,-49.62 364,-46.62 367,-46.62 367,-46.62 435,-46.62 435,-46.62 438,-46.62 441,-49.62 441,-52.62 441,-52.62 441,-58.62 441,-58.62 441,-61.62 438,-64.62 435,-64.62"/>
<text text-anchor="middle" x="401" y="-53.42" font-family="Helvetica,sans-Serif" font-size="9.00" fill="#c40b0a">stimulus.umd.js</text>
</a>
</g>
</g>
<!-- src/controllers/application&#45;controller.js -->
<g id="node5" class="node">
<title>src/controllers/application&#45;controller.js</title>
<g id="a_node5"><a xlink:href="src/controllers/application-controller.js" xlink:title="application&#45;controller.js">
<path fill="#ffffcc" stroke="black" d="M192,-199.62C192,-199.62 92,-199.62 92,-199.62 89,-199.62 86,-196.62 86,-193.62 86,-193.62 86,-187.62 86,-187.62 86,-184.62 89,-181.62 92,-181.62 92,-181.62 192,-181.62 192,-181.62 195,-181.62 198,-184.62 198,-187.62 198,-187.62 198,-193.62 198,-193.62 198,-196.62 195,-199.62 192,-199.62"/>
<text text-anchor="middle" x="142" y="-188.42" font-family="Helvetica,sans-Serif" font-size="9.00">application&#45;controller.js</text>
</a>
</g>
</g>
<!-- src/controllers/application&#45;controller.js&#45;&gt;node_modules/stimulus/dist/stimulus.umd.js -->
<g id="edge4" class="edge">
<title>src/controllers/application&#45;controller.js&#45;&gt;node_modules/stimulus/dist/stimulus.umd.js</title>
<path fill="none" stroke="#000000" stroke-opacity="0.200000" d="M191.51,-181.56C193.92,-179.88 196.12,-177.91 198,-175.62 214.52,-155.46 187.09,-76.55 206,-58.62 226.61,-39.07 304.26,-43.98 354.85,-49.6"/>
<polygon fill="#000000" fill-opacity="0.200000" stroke="#000000" stroke-opacity="0.200000" points="354.68,-51.69 360.88,-50.29 355.15,-47.52 354.68,-51.69"/>
</g>
<!-- src/lib/application&#45;model.js -->
<g id="node6" class="node">
<title>src/lib/application&#45;model.js</title>
<g id="a_node6"><a xlink:href="src/lib/application-model.js" xlink:title="application&#45;model.js">
<path fill="#ffffcc" stroke="black" d="M307,-109.62C307,-109.62 220,-109.62 220,-109.62 217,-109.62 214,-106.62 214,-103.62 214,-103.62 214,-97.62 214,-97.62 214,-94.62 217,-91.62 220,-91.62 220,-91.62 307,-91.62 307,-91.62 310,-91.62 313,-94.62 313,-97.62 313,-97.62 313,-103.62 313,-103.62 313,-106.62 310,-109.62 307,-109.62"/>
<text text-anchor="middle" x="263.5" y="-98.42" font-family="Helvetica,sans-Serif" font-size="9.00">application&#45;model.js</text>
</a>
</g>
</g>
<!-- src/controllers/application&#45;controller.js&#45;&gt;src/lib/application&#45;model.js -->
<g id="edge3" class="edge">
<title>src/controllers/application&#45;controller.js&#45;&gt;src/lib/application&#45;model.js</title>
<path fill="none" stroke="#000000" stroke-width="2" stroke-opacity="0.200000" d="M190.6,-181.51C193.3,-179.85 195.81,-177.9 198,-175.62 209.05,-164.1 197.13,-153.88 206,-140.62 213.87,-128.86 226.45,-119.45 237.75,-112.73"/>
<polygon fill="#000000" fill-opacity="0.200000" stroke="#000000" stroke-width="2" stroke-opacity="0.200000" points="238.99,-114.44 243.16,-109.64 236.91,-110.79 238.99,-114.44"/>
</g>
<!-- src/controllers/button&#45;controller.js -->
<g id="node7" class="node">
<title>src/controllers/button&#45;controller.js</title>
<g id="a_node7"><a xlink:href="src/controllers/button-controller.js" xlink:title="button&#45;controller.js">
<path fill="#ffffcc" stroke="black" d="M182,-169.62C182,-169.62 102,-169.62 102,-169.62 99,-169.62 96,-166.62 96,-163.62 96,-163.62 96,-157.62 96,-157.62 96,-154.62 99,-151.62 102,-151.62 102,-151.62 182,-151.62 182,-151.62 185,-151.62 188,-154.62 188,-157.62 188,-157.62 188,-163.62 188,-163.62 188,-166.62 185,-169.62 182,-169.62"/>
<text text-anchor="middle" x="142" y="-158.42" font-family="Helvetica,sans-Serif" font-size="9.00">button&#45;controller.js</text>
</a>
</g>
</g>
<!-- src/controllers/button&#45;controller.js&#45;&gt;node_modules/stimulus/dist/stimulus.umd.js -->
<g id="edge5" class="edge">
<title>src/controllers/button&#45;controller.js&#45;&gt;node_modules/stimulus/dist/stimulus.umd.js</title>
<path fill="none" stroke="#000000" stroke-opacity="0.200000" d="M144.26,-151.32C148.15,-126.68 162.47,-59.71 206,-32.62 259.44,0.64 337.34,-26.41 376.16,-43.8"/>
<polygon fill="#000000" fill-opacity="0.200000" stroke="#000000" stroke-opacity="0.200000" points="375.72,-45.91 382.05,-46.5 377.47,-42.09 375.72,-45.91"/>
</g>
<!-- src/controllers/course&#45;controller.js -->
<g id="node8" class="node">
<title>src/controllers/course&#45;controller.js</title>
<g id="a_node8"><a xlink:href="src/controllers/course-controller.js" xlink:title="course&#45;controller.js">
<path fill="#ffffcc" stroke="black" d="M305,-215.62C305,-215.62 222,-215.62 222,-215.62 219,-215.62 216,-212.62 216,-209.62 216,-209.62 216,-203.62 216,-203.62 216,-200.62 219,-197.62 222,-197.62 222,-197.62 305,-197.62 305,-197.62 308,-197.62 311,-200.62 311,-203.62 311,-203.62 311,-209.62 311,-209.62 311,-212.62 308,-215.62 305,-215.62"/>
<text text-anchor="middle" x="263.5" y="-204.42" font-family="Helvetica,sans-Serif" font-size="9.00">course&#45;controller.js</text>
</a>
</g>
</g>
<!-- src/controllers/course&#45;controller.js&#45;&gt;node_modules/hogan.js/lib/hogan.js -->
<g id="edge6" class="edge">
<title>src/controllers/course&#45;controller.js&#45;&gt;node_modules/hogan.js/lib/hogan.js</title>
<path fill="none" stroke="#000000" stroke-opacity="0.200000" d="M310,-197.55C328.9,-193.79 350.39,-189.5 367.64,-186.07"/>
<polygon fill="#000000" fill-opacity="0.200000" stroke="#000000" stroke-opacity="0.200000" points="368.31,-188.07 373.79,-184.84 367.49,-183.95 368.31,-188.07"/>
</g>
<!-- src/controllers/course&#45;controller.js&#45;&gt;node_modules/stimulus/dist/stimulus.umd.js -->
<g id="edge7" class="edge">
<title>src/controllers/course&#45;controller.js&#45;&gt;node_modules/stimulus/dist/stimulus.umd.js</title>
<path fill="none" stroke="#000000" stroke-opacity="0.200000" d="M273.42,-197.52C286,-184.61 309.61,-160.14 329,-138.62 340.47,-125.89 371.12,-89.78 388.16,-69.64"/>
<polygon fill="#000000" fill-opacity="0.200000" stroke="#000000" stroke-opacity="0.200000" points="389.91,-70.82 392.18,-64.88 386.7,-68.11 389.91,-70.82"/>
</g>
<!-- src/controllers/field&#45;controller.js -->
<g id="node9" class="node">
<title>src/controllers/field&#45;controller.js</title>
<g id="a_node9"><a xlink:href="src/controllers/field-controller.js" xlink:title="field&#45;controller.js">
<path fill="#ffffcc" stroke="black" d="M178,-229.62C178,-229.62 106,-229.62 106,-229.62 103,-229.62 100,-226.62 100,-223.62 100,-223.62 100,-217.62 100,-217.62 100,-214.62 103,-211.62 106,-211.62 106,-211.62 178,-211.62 178,-211.62 181,-211.62 184,-214.62 184,-217.62 184,-217.62 184,-223.62 184,-223.62 184,-226.62 181,-229.62 178,-229.62"/>
<text text-anchor="middle" x="142" y="-218.42" font-family="Helvetica,sans-Serif" font-size="9.00">field&#45;controller.js</text>
</a>
</g>
</g>
<!-- src/controllers/field&#45;controller.js&#45;&gt;node_modules/stimulus/dist/stimulus.umd.js -->
<g id="edge9" class="edge">
<title>src/controllers/field&#45;controller.js&#45;&gt;node_modules/stimulus/dist/stimulus.umd.js</title>
<path fill="none" stroke="#000000" stroke-opacity="0.200000" d="M184.03,-215.68C189.4,-213.38 194.31,-210.14 198,-205.62 215.59,-184.05 186.96,-100.92 206,-80.62 216.01,-69.94 300.48,-62.31 354.61,-58.46"/>
<polygon fill="#000000" fill-opacity="0.200000" stroke="#000000" stroke-opacity="0.200000" points="354.89,-60.55 360.73,-58.03 354.59,-56.36 354.89,-60.55"/>
</g>
<!-- src/controllers/field&#45;controller.js&#45;&gt;src/controllers/course&#45;controller.js -->
<g id="edge8" class="edge">
<title>src/controllers/field&#45;controller.js&#45;&gt;src/controllers/course&#45;controller.js</title>
<path fill="none" stroke="#000000" stroke-width="2" stroke-opacity="0.200000" d="M184.13,-215.8C192.46,-214.82 201.34,-213.78 210.01,-212.77"/>
<polygon fill="#000000" fill-opacity="0.200000" stroke="#000000" stroke-width="2" stroke-opacity="0.200000" points="210.25,-214.85 215.97,-212.07 209.76,-210.68 210.25,-214.85"/>
</g>
<!-- src/main.js -->
<g id="node10" class="node">
<title>src/main.js</title>
<g id="a_node10"><a xlink:href="src/main.js" xlink:title="main.js">
<path fill="#ffffcc" stroke="black" d="M64,-214.62C64,-214.62 22,-214.62 22,-214.62 19,-214.62 16,-211.62 16,-208.62 16,-208.62 16,-202.62 16,-202.62 16,-199.62 19,-196.62 22,-196.62 22,-196.62 64,-196.62 64,-196.62 67,-196.62 70,-199.62 70,-202.62 70,-202.62 70,-208.62 70,-208.62 70,-211.62 67,-214.62 64,-214.62"/>
<text text-anchor="middle" x="43" y="-203.42" font-family="Helvetica,sans-Serif" font-size="9.00">main.js</text>
</a>
</g>
</g>
<!-- src/main.js&#45;&gt;node_modules/stimulus/dist/stimulus.umd.js -->
<g id="edge15" class="edge">
<title>src/main.js&#45;&gt;node_modules/stimulus/dist/stimulus.umd.js</title>
<path fill="none" stroke="#000000" stroke-opacity="0.200000" d="M47.84,-196.58C62.43,-163.6 118.09,-49.83 206,-13.62 256.55,7.2 276.27,0.81 329,-13.62 349.49,-19.22 370.07,-32.43 383.76,-42.55"/>
<polygon fill="#000000" fill-opacity="0.200000" stroke="#000000" stroke-opacity="0.200000" points="382.78,-44.44 388.83,-46.39 385.31,-41.1 382.78,-44.44"/>
</g>
<!-- src/main.js&#45;&gt;src/controllers/application&#45;controller.js -->
<g id="edge10" class="edge">
<title>src/main.js&#45;&gt;src/controllers/application&#45;controller.js</title>
<path fill="none" stroke="#000000" stroke-width="2" stroke-opacity="0.200000" d="M70.25,-201.56C73.34,-201.08 76.57,-200.58 79.9,-200.07"/>
<polygon fill="#000000" fill-opacity="0.200000" stroke="#000000" stroke-width="2" stroke-opacity="0.200000" points="80.35,-202.12 85.96,-199.13 79.71,-197.97 80.35,-202.12"/>
</g>
<!-- src/main.js&#45;&gt;src/controllers/button&#45;controller.js -->
<g id="edge11" class="edge">
<title>src/main.js&#45;&gt;src/controllers/button&#45;controller.js</title>
<path fill="none" stroke="#000000" stroke-width="2" stroke-opacity="0.200000" d="M52.05,-196.41C58.44,-189.68 67.94,-180.84 78,-175.62 81.84,-173.63 85.95,-171.89 90.17,-170.39"/>
<polygon fill="#000000" fill-opacity="0.200000" stroke="#000000" stroke-width="2" stroke-opacity="0.200000" points="90.92,-172.35 95.96,-168.47 89.6,-168.36 90.92,-172.35"/>
</g>
<!-- src/main.js&#45;&gt;src/controllers/course&#45;controller.js -->
<g id="edge12" class="edge">
<title>src/main.js&#45;&gt;src/controllers/course&#45;controller.js</title>
<path fill="none" stroke="#000000" stroke-width="2" stroke-opacity="0.200000" d="M50.98,-214.64C57.18,-221.86 66.96,-231.44 78,-235.62 127.89,-254.48 145.85,-246.8 198,-235.62 213.41,-232.31 229.58,-225.03 241.87,-218.59"/>
<polygon fill="#000000" fill-opacity="0.200000" stroke="#000000" stroke-width="2" stroke-opacity="0.200000" points="242.94,-220.4 247.23,-215.71 240.95,-216.7 242.94,-220.4"/>
</g>
<!-- src/main.js&#45;&gt;src/controllers/field&#45;controller.js -->
<g id="edge13" class="edge">
<title>src/main.js&#45;&gt;src/controllers/field&#45;controller.js</title>
<path fill="none" stroke="#000000" stroke-width="2" stroke-opacity="0.200000" d="M70.25,-209.68C77.49,-210.8 85.58,-212.05 93.63,-213.29"/>
<polygon fill="#000000" fill-opacity="0.200000" stroke="#000000" stroke-width="2" stroke-opacity="0.200000" points="93.51,-215.4 99.76,-214.24 94.15,-211.25 93.51,-215.4"/>
</g>
<!-- src/style.css -->
<g id="node11" class="node">
<title>src/style.css</title>
<g id="a_node11"><a xlink:href="src/style.css" xlink:title="style.css">
<path fill="#ffffcc" stroke="black" d="M163,-281.62C163,-281.62 121,-281.62 121,-281.62 118,-281.62 115,-278.62 115,-275.62 115,-275.62 115,-269.62 115,-269.62 115,-266.62 118,-263.62 121,-263.62 121,-263.62 163,-263.62 163,-263.62 166,-263.62 169,-266.62 169,-269.62 169,-269.62 169,-275.62 169,-275.62 169,-278.62 166,-281.62 163,-281.62"/>
<text text-anchor="middle" x="142" y="-270.42" font-family="Helvetica,sans-Serif" font-size="9.00">style.css</text>
</a>
</g>
</g>
<!-- src/main.js&#45;&gt;src/style.css -->
<g id="edge14" class="edge">
<title>src/main.js&#45;&gt;src/style.css</title>
<path fill="none" stroke="#000000" stroke-width="2" stroke-opacity="0.200000" d="M47.26,-214.68C52.07,-226.68 62.22,-247.6 78,-258.62 86.98,-264.89 98.3,-268.41 108.85,-270.37"/>
<polygon fill="#000000" fill-opacity="0.200000" stroke="#000000" stroke-width="2" stroke-opacity="0.200000" points="108.7,-272.48 114.96,-271.36 109.37,-268.33 108.7,-272.48"/>
</g>
</g>
</svg>
